<svg width="24" height="28" viewBox="0 0 24 28" fill="none" xmlns="http://www.w3.org/2000/svg">
<path fill-rule="evenodd" clip-rule="evenodd" d="M15.383 0H3.25616C1.96885 0.00163246 0.925705 1.04478 0.924072 2.33209V25.653C0.925705 26.9403 1.96885 27.9834 3.25616 27.9851H14.9166V27.1507C14.9144 25.0496 15.5364 22.9946 16.7039 21.2477C16.8275 21.0625 16.8027 20.8161 16.6456 20.659L13.3807 17.3941C13.0789 17.092 12.9189 16.6765 12.94 16.2501C12.9613 15.8235 13.1617 15.4261 13.4917 15.1553C14.1273 14.6694 15.0262 14.7388 15.5799 15.3161L20.1839 19.9202L20.8434 19.2607L17.7151 16.1315V2.33209C17.7135 1.04478 16.6703 0.00163246 15.383 0ZM16.7823 15.1987L16.2394 14.6558C15.3445 13.7416 13.9054 13.6463 12.898 14.4349C12.3651 14.8729 12.0417 15.5159 12.008 16.2051C11.9744 16.8942 12.2333 17.5655 12.7212 18.0536L15.7202 21.0528C14.6018 22.8552 14.002 24.9312 13.987 27.0522H3.25616C2.48354 27.0522 1.85691 26.4256 1.85691 25.653V24.2537H13.5174V23.3209H1.85691V3.73134H16.7823V15.1987ZM1.85691 2.79851H16.7823V2.33209C16.7823 1.55947 16.1556 0.932836 15.383 0.932836H3.25616C2.48354 0.932836 1.85691 1.55947 1.85691 2.33209V2.79851ZM19.0904 10.8503L18.4614 11.5378L21.3218 14.16C21.9952 14.7795 22.3791 15.6524 22.3793 16.5672V27.9851H23.3121V16.5672C23.311 15.3906 22.8175 14.2687 21.9511 13.4724L19.0904 10.8503ZM3.72258 8.39552H5.58825C6.10353 8.39552 6.52109 7.97796 6.52109 7.46269V5.59702C6.52109 5.08174 6.10353 4.66418 5.58825 4.66418H3.72258C3.2073 4.66418 2.78974 5.08174 2.78974 5.59702V7.46269C2.78974 7.97796 3.2073 8.39552 3.72258 8.39552ZM3.72258 5.59702H5.58825V7.46269H3.72258V5.59702ZM10.2524 8.39552H8.38676C7.87148 8.39552 7.45392 7.97796 7.45392 7.46269V5.59702C7.45392 5.08174 7.87148 4.66418 8.38676 4.66418H10.2524C10.7677 4.66418 11.1853 5.08174 11.1853 5.59702V7.46269C11.1853 7.97796 10.7677 8.39552 10.2524 8.39552ZM10.2524 5.59702H8.38676V7.46269H10.2524V5.59702ZM13.0509 8.39552H14.9166C15.4319 8.39552 15.8494 7.97796 15.8494 7.46269V5.59702C15.8494 5.08174 15.4319 4.66418 14.9166 4.66418H13.0509C12.5357 4.66418 12.1181 5.08174 12.1181 5.59702V7.46269C12.1181 7.97796 12.5357 8.39552 13.0509 8.39552ZM13.0509 5.59702H14.9166V7.46269H13.0509V5.59702ZM5.58825 13.0597H3.72258C3.2073 13.0597 2.78974 12.6421 2.78974 12.1269V10.2612C2.78974 9.74592 3.2073 9.32836 3.72258 9.32836H5.58825C6.10353 9.32836 6.52109 9.74592 6.52109 10.2612V12.1269C6.52109 12.6421 6.10353 13.0597 5.58825 13.0597ZM5.58825 10.2612H3.72258V12.1269H5.58825V10.2612ZM3.72258 17.7239H5.58825C6.10353 17.7239 6.52109 17.3063 6.52109 16.791V14.9254C6.52109 14.4101 6.10353 13.9925 5.58825 13.9925H3.72258C3.2073 13.9925 2.78974 14.4101 2.78974 14.9254V16.791C2.78974 17.3063 3.2073 17.7239 3.72258 17.7239ZM3.72258 14.9254H5.58825V16.791H3.72258V14.9254ZM10.2524 13.0597H8.38676C7.87148 13.0597 7.45392 12.6421 7.45392 12.1269V10.2612C7.45392 9.74592 7.87148 9.32836 8.38676 9.32836H10.2524C10.7677 9.32836 11.1853 9.74592 11.1853 10.2612V12.1269C11.1853 12.6421 10.7677 13.0597 10.2524 13.0597ZM10.2524 10.2612H8.38676V12.1269H10.2524V10.2612ZM13.0509 13.0597H14.9166C15.4319 13.0597 15.8494 12.6421 15.8494 12.1269V10.2612C15.8494 9.74592 15.4319 9.32836 14.9166 9.32836H13.0509C12.5357 9.32836 12.1181 9.74592 12.1181 10.2612V12.1269C12.1181 12.6421 12.5357 13.0597 13.0509 13.0597ZM13.0509 10.2612H14.9166V12.1269H13.0509V10.2612ZM10.2524 17.7239H8.38676C7.87148 17.7239 7.45392 17.3063 7.45392 16.791V14.9254C7.45392 14.4101 7.87148 13.9925 8.38676 13.9925H10.2524C10.7677 13.9925 11.1853 14.4101 11.1853 14.9254V16.791C11.1853 17.3063 10.7677 17.7239 10.2524 17.7239ZM10.2524 14.9254H8.38676V16.791H10.2524V14.9254ZM3.72258 22.3881H5.58825C6.10353 22.3881 6.52109 21.9705 6.52109 21.4552V19.5896C6.52109 19.0743 6.10353 18.6567 5.58825 18.6567H3.72258C3.2073 18.6567 2.78974 19.0743 2.78974 19.5896V21.4552C2.78974 21.9705 3.2073 22.3881 3.72258 22.3881ZM3.72258 19.5896H5.58825V21.4552H3.72258V19.5896ZM10.2524 22.3881H8.38676C7.87148 22.3881 7.45392 21.9705 7.45392 21.4552V19.5896C7.45392 19.0743 7.87148 18.6567 8.38676 18.6567H10.2524C10.7677 18.6567 11.1853 19.0743 11.1853 19.5896V21.4552C11.1853 21.9705 10.7677 22.3881 10.2524 22.3881ZM10.2524 19.5896H8.38676V21.4552H10.2524V19.5896ZM9.78601 25.1866H8.85318V26.1194H9.78601V25.1866Z" fill="#495567"/>
</svg>
