<svg width="24" height="24" viewBox="0 0 24 24" fill="none" xmlns="http://www.w3.org/2000/svg">
<path fill-rule="evenodd" clip-rule="evenodd" d="M21.4332 10.8333H22.4999C22.7147 10.8333 22.8888 10.6591 22.8888 10.4444V7.33325C22.8888 7.11847 22.7147 6.94436 22.4999 6.94436H18.8514L18.2221 5.68592V4.22214C18.2221 4.00736 18.048 3.83325 17.8333 3.83325H15.4999C15.2851 3.83325 15.111 4.00736 15.111 4.22214V5.7777C15.111 5.99247 15.2851 6.16659 15.4999 6.16659H17.5929L18.2221 7.42503V9.66659C18.2221 9.02225 17.6998 8.49992 17.0555 8.49992C16.4111 8.49992 15.8888 9.02225 15.8888 9.66659V8.88881C15.8888 8.67403 15.7147 8.49992 15.4999 8.49992H12.4366L11.2221 8.1962V1.88881C11.2221 1.0297 10.5257 0.333252 9.66658 0.333252H8.11103C7.25192 0.333252 6.55547 1.0297 6.55547 1.88881V6.16659H4.61103C3.9667 6.16659 3.44436 6.68892 3.44436 7.33325V8.49992H0.722141C0.564876 8.49995 0.423111 8.5947 0.362933 8.74C0.302755 8.88529 0.33601 9.05253 0.447196 9.16375L1.33892 10.0555L0.447196 10.9472C0.33601 11.0584 0.302755 11.2257 0.362933 11.371C0.423111 11.5162 0.564876 11.611 0.722141 11.611H4.61103C5.25536 11.611 5.7777 11.0887 5.7777 10.4444V9.2777H6.55547V13.1666H5.38881C4.0368 13.1682 2.89084 14.1618 2.6977 15.4999H1.49992C1.28514 15.4999 1.11103 15.674 1.11103 15.8888V17.4444C1.11103 17.6591 1.28514 17.8333 1.49992 17.8333H2.66659V18.611H0.722141C0.507363 18.611 0.333252 18.7851 0.333252 18.9999V20.5555C0.333252 20.7703 0.507363 20.9444 0.722141 20.9444H4.99992C4.99992 22.4478 6.2187 23.6666 7.72214 23.6666C9.22558 23.6666 10.4444 22.4478 10.4444 20.9444H17.4444C17.4444 22.4478 18.6631 23.6666 20.1666 23.6666C21.67 23.6666 22.8888 22.4478 22.8888 20.9444H23.2777C23.3963 20.9444 23.5084 20.8904 23.5822 20.7977C23.6561 20.7049 23.6835 20.5835 23.6569 20.468L21.4332 10.8333ZM15.8888 9.66659C15.8888 10.3109 16.4111 10.8333 17.0555 10.8333C17.6998 10.8333 18.2221 10.3109 18.2221 9.66659V17.8333H17.0555V17.4444C17.0555 16.8 16.5331 16.2777 15.8888 16.2777V11.9999C15.8888 11.7851 15.7147 11.611 15.4999 11.611H11.2221V10.5536L12.2943 10.8216C12.3252 10.8293 12.3569 10.8332 12.3888 10.8333H15.4999C15.7147 10.8333 15.8888 10.6591 15.8888 10.4444V9.66659ZM17.4444 5.38881H15.8888V4.61103H17.4444V5.38881ZM2.66659 20.1666V19.3888H1.11103V20.1666H2.66659ZM2.66659 17.0555H1.88881V16.2777H2.66659V17.0555ZM22.111 7.72214H21.3333V10.0555H22.111V7.72214ZM18.9999 7.72214H20.5555V10.0555H18.9999V7.72214ZM16.2777 17.4444C16.2777 17.2296 16.1036 17.0555 15.8888 17.0555H14.3333V17.8333H16.2777V17.4444ZM12.2943 9.26603C12.3252 9.27378 12.3569 9.27769 12.3888 9.2777H15.111V10.0555H12.4366L9.66658 9.36286V8.6092L12.2943 9.26603ZM8.11103 1.11103C7.68147 1.11103 7.33325 1.45925 7.33325 1.88881V3.44436H8.49992V2.66659C8.49992 2.45181 8.67403 2.2777 8.88881 2.2777H10.4444V1.88881C10.4444 1.45925 10.0961 1.11103 9.66658 1.11103H8.11103ZM8.88881 4.22214C9.10359 4.22214 9.2777 4.04803 9.2777 3.83325V3.05547H10.4444V3.93281L7.33325 4.86614V4.22214H8.88881ZM10.4444 6.55547V4.74481L7.33325 5.67814V6.55547H10.4444ZM10.4444 7.33325V8.00175L9.3722 7.73381C9.256 7.7047 9.13288 7.73076 9.03845 7.80446C8.94401 7.87815 8.88881 7.99125 8.88881 8.11103V9.66658C8.88881 9.84496 9.01017 10.0005 9.1832 10.0438L10.4444 10.3592V11.611H7.33325V7.33325H10.4444ZM15.111 16.2777V12.3888H7.33325V13.1666H13.9444C14.1591 13.1666 14.3333 13.3407 14.3333 13.5555V16.2777H15.111ZM4.99992 10.4444C4.99992 10.6591 4.82581 10.8333 4.61103 10.8333H1.66092L2.16375 10.3304C2.31557 10.1786 2.31557 9.93239 2.16375 9.78053L1.66092 9.2777H4.99992V10.4444ZM4.22214 7.33325V8.49992H6.55547V6.94436H4.61103C4.39625 6.94436 4.22214 7.11847 4.22214 7.33325ZM7.72214 22.8888C6.64879 22.8875 5.77898 22.0177 5.7777 20.9444H6.55547C6.55547 21.5887 7.07781 22.111 7.72214 22.111C8.36647 22.111 8.88881 21.5887 8.88881 20.9444H9.66659C9.6653 22.0177 8.7955 22.8875 7.72214 22.8888ZM7.72214 21.3333C7.93692 21.3333 8.11103 21.1591 8.11103 20.9444H7.33325C7.33325 21.1591 7.50736 21.3333 7.72214 21.3333ZM10.4444 20.1666H4.99992V16.2777C4.99992 16.0629 5.17403 15.8888 5.38881 15.8888H10.0555C10.2703 15.8888 10.4444 16.0629 10.4444 16.2777V20.1666ZM11.2221 20.1666H11.9999V15.8888C11.9986 14.8155 11.1288 13.9456 10.0555 13.9444H5.38881C4.31545 13.9456 3.44565 14.8155 3.44436 15.8888V20.1666H4.22214V16.2777C4.22214 15.6334 4.74448 15.111 5.38881 15.111H10.0555C10.6998 15.111 11.2221 15.6334 11.2221 16.2777V20.1666ZM11.9571 13.9444H13.5555V17.8333H12.7777V15.8888C12.7778 15.1565 12.4819 14.4552 11.9571 13.9444ZM12.7777 18.611V20.1666H18.2221V18.611H12.7777ZM20.1666 22.8888C19.0932 22.8875 18.2234 22.0177 18.2221 20.9444H18.9999C18.9999 21.5887 19.5223 22.111 20.1666 22.111C20.8109 22.111 21.3333 21.5887 21.3333 20.9444H22.111C22.1097 22.0177 21.2399 22.8875 20.1666 22.8888ZM20.1666 21.3333C20.3814 21.3333 20.5555 21.1591 20.5555 20.9444H19.7777C19.7777 21.1591 19.9518 21.3333 20.1666 21.3333ZM18.9999 20.1666V17.4444H19.7777V16.6666H18.9999V10.8333H20.6333L22.7869 20.1666H18.9999ZM21.3333 16.6666H20.5555V17.4444H21.3333V16.6666ZM5.7777 16.6666H6.55547V17.4444H5.7777V16.6666ZM8.11103 16.6666H7.33325V17.4444H8.11103V16.6666ZM8.88881 16.6666H9.66658V17.4444H8.88881V16.6666ZM17.0555 9.2777C17.2703 9.2777 17.4444 9.45181 17.4444 9.66659C17.4444 9.88136 17.2703 10.0555 17.0555 10.0555C16.8407 10.0555 16.6666 9.88136 16.6666 9.66659C16.6666 9.45181 16.8407 9.2777 17.0555 9.2777ZM0.333252 3.05547H5.38881V3.83325H0.333252V3.05547ZM5.7777 4.61103H1.11103V5.38881H5.7777V4.61103Z" fill="#495567"/>
</svg>
